<svg width="13" height="16" viewBox="0 0 13 16" fill="none" xmlns="http://www.w3.org/2000/svg">
<path d="M12 6.72727C12 10.3081 8.44602 13.4777 7.05181 14.5833C6.72473 14.8427 6.27527 14.8427 5.94819 14.5833C4.55398 13.4777 1 10.3081 1 6.72727C1 5.20831 1.57946 3.75155 2.61091 2.67748C3.64236 1.60341 5.04131 1 6.5 1C7.95869 1 9.35764 1.60341 10.3891 2.67748C11.4205 3.75155 12 5.20831 12 6.72727Z" stroke="#3456FF" stroke-linecap="round" stroke-linejoin="round"/>
<path d="M6.5 9C7.88071 9 9 7.88071 9 6.5C9 5.11929 7.88071 4 6.5 4C5.11929 4 4 5.11929 4 6.5C4 7.88071 5.11929 9 6.5 9Z" stroke="#022277" stroke-linecap="round" stroke-linejoin="round"/>
</svg>
