<svg width="13" height="13" viewBox="0 0 13 13" fill="none" xmlns="http://www.w3.org/2000/svg">
<path d="M6.5 12C9.53757 12 12 9.53757 12 6.5C12 3.46243 9.53757 1 6.5 1C3.46243 1 1 3.46243 1 6.5C1 9.53757 3.46243 12 6.5 12Z" stroke="#3456FF" stroke-linecap="round" stroke-linejoin="round"/>
<path d="M4.896 8.054C4.588 8.054 4.308 7.984 4.056 7.844C3.808 7.704 3.612 7.506 3.468 7.25C3.328 6.99 3.258 6.69 3.258 6.35C3.258 6.014 3.33 5.718 3.474 5.462C3.622 5.202 3.822 5.004 4.074 4.868C4.326 4.728 4.608 4.658 4.92 4.658C5.232 4.658 5.514 4.728 5.766 4.868C6.018 5.004 6.216 5.2 6.36 5.456C6.508 5.712 6.582 6.01 6.582 6.35C6.582 6.69 6.506 6.99 6.354 7.25C6.206 7.506 6.004 7.704 5.748 7.844C5.492 7.984 5.208 8.054 4.896 8.054ZM4.896 7.574C5.092 7.574 5.276 7.528 5.448 7.436C5.62 7.344 5.758 7.206 5.862 7.022C5.97 6.838 6.024 6.614 6.024 6.35C6.024 6.086 5.972 5.862 5.868 5.678C5.764 5.494 5.628 5.358 5.46 5.27C5.292 5.178 5.11 5.132 4.914 5.132C4.714 5.132 4.53 5.178 4.362 5.27C4.198 5.358 4.066 5.494 3.966 5.678C3.866 5.862 3.816 6.086 3.816 6.35C3.816 6.618 3.864 6.844 3.96 7.028C4.06 7.212 4.192 7.35 4.356 7.442C4.52 7.53 4.7 7.574 4.896 7.574ZM8.46389 8.054C8.21189 8.054 7.98589 8.012 7.78589 7.928C7.58589 7.84 7.42789 7.72 7.31189 7.568C7.19589 7.412 7.13189 7.234 7.11989 7.034H7.68389C7.69989 7.198 7.77589 7.332 7.91189 7.436C8.05189 7.54 8.23389 7.592 8.45789 7.592C8.66589 7.592 8.82989 7.546 8.94989 7.454C9.06989 7.362 9.12989 7.246 9.12989 7.106C9.12989 6.962 9.06589 6.856 8.93789 6.788C8.80989 6.716 8.61189 6.646 8.34389 6.578C8.09989 6.514 7.89989 6.45 7.74389 6.386C7.59189 6.318 7.45989 6.22 7.34789 6.092C7.23989 5.96 7.18589 5.788 7.18589 5.576C7.18589 5.408 7.23589 5.254 7.33589 5.114C7.43589 4.974 7.57789 4.864 7.76189 4.784C7.94589 4.7 8.15589 4.658 8.39189 4.658C8.75589 4.658 9.04989 4.75 9.27389 4.934C9.49789 5.118 9.61789 5.37 9.63389 5.69H9.08789C9.07589 5.518 9.00589 5.38 8.87789 5.276C8.75389 5.172 8.58589 5.12 8.37389 5.12C8.17789 5.12 8.02189 5.162 7.90589 5.246C7.78989 5.33 7.73189 5.44 7.73189 5.576C7.73189 5.684 7.76589 5.774 7.83389 5.846C7.90589 5.914 7.99389 5.97 8.09789 6.014C8.20589 6.054 8.35389 6.1 8.54189 6.152C8.77789 6.216 8.96989 6.28 9.11789 6.344C9.26589 6.404 9.39189 6.496 9.49589 6.62C9.60389 6.744 9.65989 6.906 9.66389 7.106C9.66389 7.286 9.61389 7.448 9.51389 7.592C9.41389 7.736 9.27189 7.85 9.08789 7.934C8.90789 8.014 8.69989 8.054 8.46389 8.054Z" fill="#022277"/>
</svg>
