<svg width="15" height="14" viewBox="0 0 15 14" fill="none" xmlns="http://www.w3.org/2000/svg">
<path d="M3.75 8.00195H11.25" stroke="#022277" stroke-linecap="round"/>
<path d="M4.28516 10.001H7.49944" stroke="#022277" stroke-linecap="round"/>
<path d="M11.875 1.16667H11.25V0.583333C11.25 0.261333 10.9706 0 10.625 0C10.2794 0 10 0.261333 10 0.583333V1.16667H5V0.583333C5 0.261333 4.72062 0 4.375 0C4.02938 0 3.75 0.261333 3.75 0.583333V1.16667H3.125C1.40188 1.16667 0 2.47508 0 4.08333V11.0833C0 12.6916 1.40188 14 3.125 14H11.875C13.5981 14 15 12.6916 15 11.0833V4.08333C15 2.47508 13.5981 1.16667 11.875 1.16667ZM3.125 2.33333H11.875C12.9088 2.33333 13.75 3.1185 13.75 4.08333V4.66667H1.25V4.08333C1.25 3.1185 2.09125 2.33333 3.125 2.33333ZM11.875 12.8333H3.125C2.09125 12.8333 1.25 12.0482 1.25 11.0833V5.83333H13.75V11.0833C13.75 12.0482 12.9088 12.8333 11.875 12.8333Z" fill="#3456FF"/>
</svg>
