<svg width="15" height="21" viewBox="0 0 15 21" fill="none" xmlns="http://www.w3.org/2000/svg">
<path fill-rule="evenodd" clip-rule="evenodd" d="M0.766895 3.47168C1.25793 2.94832 1.92392 2.6543 2.61834 2.6543H4.57101C4.93865 2.6543 5.23669 2.97195 5.23669 3.3638C5.23669 3.75565 4.93865 4.0733 4.57101 4.0733H2.61834C2.27701 4.0733 1.94967 4.21782 1.70831 4.47507C1.46695 4.73231 1.33136 5.08121 1.33136 5.44501V17.9323C1.33136 18.2961 1.46695 18.645 1.70831 18.9022C1.94967 19.1595 2.27701 19.304 2.61834 19.304H12.3817C12.723 19.304 13.0503 19.1595 13.2917 18.9022C13.533 18.645 13.6686 18.2961 13.6686 17.9323V5.44501C13.6686 5.08121 13.533 4.73231 13.2917 4.47507C13.0503 4.21782 12.723 4.0733 12.3817 4.0733H10.429C10.0613 4.0733 9.76331 3.75565 9.76331 3.3638C9.76331 2.97195 10.0613 2.6543 10.429 2.6543H12.3817C13.0761 2.6543 13.7421 2.94832 14.2331 3.47168C14.7241 3.99504 15 4.70487 15 5.44501V17.9323C15 18.6724 14.7241 19.3822 14.2331 19.9056C13.7421 20.429 13.0761 20.723 12.3817 20.723H2.61834C1.92392 20.723 1.25793 20.429 0.766895 19.9056C0.27586 19.3822 0 18.6724 0 17.9323V5.44501C0 4.70487 0.27586 3.99504 0.766895 3.47168Z" fill="#060D1A"/>
<path fill-rule="evenodd" clip-rule="evenodd" d="M6.52459 1.99323C5.81381 1.99323 5.23761 2.60736 5.23761 3.36493C5.23761 4.12251 5.81381 4.73664 6.52459 4.73664H8.47726C9.18804 4.73664 9.76424 4.12251 9.76424 3.36493C9.76424 2.60736 9.18804 1.99323 8.47726 1.99323H6.52459ZM3.90625 3.36493C3.90625 1.82366 5.07852 0.574219 6.52459 0.574219H8.47726C9.92333 0.574219 11.0956 1.82366 11.0956 3.36493C11.0956 4.9062 9.92333 6.15565 8.47726 6.15565H6.52459C5.07852 6.15565 3.90625 4.9062 3.90625 3.36493Z" fill="#060D1A"/>
<path fill-rule="evenodd" clip-rule="evenodd" d="M3.90625 12.7339C3.90625 12.3421 4.20429 12.0244 4.57193 12.0244H4.58169C4.94934 12.0244 5.24737 12.3421 5.24737 12.7339C5.24737 13.1258 4.94934 13.4434 4.58169 13.4434H4.57193C4.20429 13.4434 3.90625 13.1258 3.90625 12.7339Z" fill="#060D1A"/>
<path fill-rule="evenodd" clip-rule="evenodd" d="M3.90625 15.8577C3.90625 15.4658 4.20429 15.1482 4.57193 15.1482H4.58169C4.94934 15.1482 5.24737 15.4658 5.24737 15.8577C5.24737 16.2495 4.94934 16.5672 4.58169 16.5672H4.57193C4.20429 16.5672 3.90625 16.2495 3.90625 15.8577Z" fill="#060D1A"/>
<path fill-rule="evenodd" clip-rule="evenodd" d="M11.8777 12.2322C12.1376 12.5093 12.1376 12.9585 11.8777 13.2356L8.94866 16.3574C8.68869 16.6345 8.26721 16.6345 8.00724 16.3574L7.03091 15.3168C6.77095 15.0397 6.77095 14.5905 7.03091 14.3134C7.29088 14.0364 7.71236 14.0364 7.97232 14.3134L8.47795 14.8523L10.9362 12.2322C11.1962 11.9551 11.6177 11.9551 11.8777 12.2322Z" fill="#060D1A"/>
</svg>
