<svg width="14" height="14" viewBox="0 0 14 14" fill="none" xmlns="http://www.w3.org/2000/svg">
<path d="M5.24986 9.62469V5.24986H9.62469V2.62497H8.67535C8.77501 2.34182 8.77501 2.03314 8.67535 1.75H11.8121C12.3922 1.75 12.9486 1.98046 13.3588 2.39068C13.7691 2.8009 13.9995 3.35728 13.9995 3.93741V11.8121C13.9995 12.3922 13.7691 12.9486 13.3588 13.3588C12.9486 13.7691 12.3922 13.9995 11.8121 13.9995H3.93741C3.35728 13.9995 2.8009 13.7691 2.39068 13.3588C1.98046 12.9486 1.75 12.3922 1.75 11.8121V8.67535C2.03261 8.7751 2.34235 8.7751 2.62497 8.67535V9.62469H5.24986ZM2.62497 11.8121C2.62498 12.1384 2.74652 12.4529 2.96587 12.6944C3.18522 12.936 3.48667 13.0871 3.81142 13.1184L3.93741 13.1246H5.24986V10.4997H2.62497V11.8121ZM9.62469 10.4997H6.12483V13.1246H9.62469V10.4997ZM11.8121 13.1246C12.1382 13.1246 12.4527 13.0031 12.6942 12.784C12.9357 12.5648 13.0869 12.2636 13.1184 11.939L13.1246 11.8121V10.4997H10.4997V13.1246H11.8121ZM9.62469 6.12483H6.12483V9.62469H9.62469V6.12483ZM10.4997 6.12483V9.62469H13.1246V6.12483H10.4997ZM10.4997 2.62497V5.24986H13.1246V3.93741C13.1246 3.61129 13.0031 3.29685 12.784 3.05535C12.5648 2.81386 12.2636 2.66262 11.939 2.63109L11.8121 2.62497H10.4997Z" fill="#3456FF"/>
<path d="M5.99757 0.128298C5.91542 0.0461501 5.804 0 5.68783 0C5.57165 0 5.46024 0.0461501 5.37809 0.128298C5.29594 0.210445 5.24979 0.321861 5.24979 0.438035C5.24979 0.55421 5.29594 0.665626 5.37809 0.747773L6.38168 1.75048H4.37538C3.67921 1.75048 3.01156 2.02703 2.5193 2.5193C2.02703 3.01156 1.75048 3.67921 1.75048 4.37538V6.38168L0.747773 5.37809C0.707098 5.33742 0.658809 5.30515 0.605664 5.28314C0.552519 5.26112 0.495559 5.24979 0.438035 5.24979C0.321861 5.24979 0.210445 5.29594 0.128298 5.37809C0.0461501 5.46024 0 5.57165 0 5.68783C0 5.804 0.0461501 5.91542 0.128298 5.99757L1.87823 7.7475C1.91887 7.78824 1.96714 7.82056 2.02029 7.84262C2.07344 7.86467 2.13042 7.87602 2.18797 7.87602C2.24551 7.87602 2.30249 7.86467 2.35564 7.84262C2.40879 7.82056 2.45707 7.78824 2.4977 7.7475L4.24764 5.99757C4.28942 5.95721 4.32275 5.90894 4.34568 5.85556C4.3686 5.80219 4.38067 5.74478 4.38118 5.68669C4.38168 5.6286 4.37061 5.571 4.34862 5.51723C4.32662 5.46347 4.29413 5.41462 4.25306 5.37354C4.21198 5.33247 4.16314 5.29998 4.10937 5.27799C4.05561 5.25599 3.998 5.24492 3.93991 5.24542C3.88182 5.24593 3.82441 5.258 3.77104 5.28093C3.71766 5.30385 3.66939 5.33718 3.62903 5.37897L2.62545 6.3808V4.37538C2.62545 3.91127 2.80982 3.46617 3.13799 3.13799C3.46617 2.80982 3.91127 2.62545 4.37538 2.62545H6.38168L5.37809 3.62816C5.29594 3.71031 5.24979 3.82172 5.24979 3.9379C5.24979 4.05407 5.29594 4.16549 5.37809 4.24764C5.46024 4.32978 5.57165 4.37593 5.68783 4.37593C5.804 4.37593 5.91542 4.32978 5.99757 4.24764L7.7475 2.4977C7.78824 2.45707 7.82056 2.40879 7.84262 2.35564C7.86467 2.30249 7.87602 2.24551 7.87602 2.18797C7.87602 2.13042 7.86467 2.07344 7.84262 2.02029C7.82056 1.96714 7.78824 1.91887 7.7475 1.87823L5.99757 0.128298Z" fill="#022277"/>
</svg>
